External Loads File
version=1
nRows=70
nColumns=13
Range=5.000000e-03-10 seconds
endheader
time 	forceRightX 	forceRightY 	forceRightZ 	pointRightX 	pointRightY 	pointRightZ 	forceLeftX 	forceLeftY 	forceLeftZ 	pointLeftX 	pointLeftY 	pointLeftZ 		
7.505000 -77.701817 975.143434 -0.000000 0.347399 0.183251 -0.148928 -20.039278 -25.468343 -0.000000 0.178461 0.470187 -0.379210
7.510000 -115.433398 965.290793 -0.000000 0.340078 0.177250 -0.148872 -28.801118 -32.203309 -0.000000 0.186527 0.476659 -0.378894
7.515000 -34.688082 959.576509 -0.000000 0.332613 0.171706 -0.148840 -41.119484 -31.971735 -0.000000 0.194920 0.482825 -0.378889
7.520000 -70.106007 939.227120 -0.000000 0.324898 0.166821 -0.148631 -48.973694 -32.682809 -0.000000 0.203393 0.488587 -0.378730
7.525000 7.873876 916.631389 -0.000000 0.317061 0.162486 -0.148598 -59.511574 -23.266134 -0.000000 0.212035 0.493681 -0.378594
7.530000 -23.101283 884.041278 -0.000000 0.308775 0.158859 -0.147857 -65.851826 -16.814692 -0.000000 0.220815 0.498132 -0.378532
7.535000 52.856549 843.001476 -0.000000 0.300654 0.155745 -0.147641 -72.202781 1.170802 -0.000000 0.229617 0.501962 -0.378439
7.540000 25.882079 797.194805 -0.000000 0.292346 0.153438 -0.147393 -76.587117 13.226273 -0.000000 0.238469 0.505153 -0.378459
7.545000 92.649347 737.740606 -0.000000 0.284023 0.151626 -0.147186 -77.041912 36.229871 -0.000000 0.247205 0.507418 -0.378689
7.550000 68.643716 679.619123 -0.000000 0.275706 0.150581 -0.146978 -79.636549 50.910575 -0.000000 0.255801 0.509229 -0.378841
7.555000 126.398863 604.159208 -0.000000 0.267435 0.150227 -0.146796 -73.694544 75.566309 -0.000000 0.264466 0.510380 -0.378834
7.560000 104.152048 537.371676 -0.000000 0.259229 0.150543 -0.146678 -75.597962 90.481850 -0.000000 0.272801 0.510684 -0.379039
7.565000 140.226801 454.013073 -0.000000 0.251128 0.151599 -0.146631 -66.236712 113.575630 -0.000000 0.280962 0.510322 -0.379178
7.570000 117.091706 385.291296 -0.000000 0.243109 0.153631 -0.146669 -70.717453 128.209593 -0.000000 0.288787 0.509069 -0.379520
7.575000 139.473369 301.526577 -0.000000 0.235218 0.155985 -0.146820 -58.865102 152.140780 -0.000000 0.296340 0.505961 -0.380042
7.580000 115.953638 239.605175 -0.000000 0.227399 0.159179 -0.147042 -68.954386 168.670374 -0.000000 0.303533 0.502702 -0.380608
7.585000 121.993612 167.163340 -0.000000 0.219734 0.162902 -0.147269 -56.682569 196.353131 -0.000000 0.310516 0.498597 -0.381257
7.590000 100.562904 120.050419 -0.000000 0.211866 0.167127 -0.147627 -74.568711 217.778186 -0.000000 0.317168 0.493816 -0.381997
7.595000 92.247938 71.810967 -0.000000 0.204011 0.171873 -0.147912 -73.637450 249.369612 -0.000000 0.323500 0.488397 -0.382646
7.600000 78.264670 42.362147 -0.000000 0.196197 0.177186 -0.148182 -101.127505 275.752518 -0.000000 0.329603 0.482082 -0.383205
7.605000 71.232858 14.800734 -0.000000 0.188420 0.182948 -0.148578 -106.692383 312.975251 -0.000000 0.335434 0.475279 -0.383618
7.610000 65.777403 2.163841 -0.000000 0.180849 0.189253 -0.148800 -143.292629 341.031577 -0.000000 0.340971 0.467936 -0.384031
7.615000 62.789674 -14.013091 -0.000000 0.173495 0.196177 -0.148925 -120.559583 392.249751 -0.000000 0.346232 0.459572 -0.384447
7.620000 64.163389 -12.971117 -0.000000 0.166476 0.203518 -0.149116 -162.927239 420.410293 -0.000000 0.351115 0.452068 -0.384689
7.625000 66.667432 -14.574229 -0.000000 0.159885 0.211178 -0.149188 -155.799273 465.059167 -0.000000 0.355744 0.443488 -0.384995
7.630000 72.719392 -4.512925 -0.000000 0.153682 0.219272 -0.149244 -202.843222 487.858530 -0.000000 0.360222 0.434565 -0.385324
7.635000 79.576316 -1.509436 -0.000000 0.148062 0.227779 -0.149244 -184.995703 532.852035 -0.000000 0.364161 0.425408 -0.385446
7.640000 87.218147 13.091401 -0.000000 0.142952 0.236478 -0.149161 -234.139501 549.583180 -0.000000 0.367761 0.415710 -0.385545
7.645000 96.268821 17.772751 -0.000000 0.138391 0.245543 -0.149132 -217.043323 589.717984 -0.000000 0.370973 0.405964 -0.385636
7.650000 102.388941 33.357271 -0.000000 0.134303 0.254956 -0.149134 -268.021634 600.204370 -0.000000 0.373798 0.395860 -0.385703
7.655000 111.836571 32.982581 -0.000000 0.131196 0.264605 -0.149030 -230.698150 644.479108 -0.000000 0.376202 0.385544 -0.385692
7.660000 114.701649 46.619382 -0.000000 0.128673 0.274628 -0.148913 -282.558871 651.687819 -0.000000 0.378230 0.374670 -0.385660
7.665000 120.886089 44.103461 -0.000000 0.126637 0.284707 -0.148992 -252.449704 690.217852 -0.000000 0.379823 0.364012 -0.385597
7.670000 119.202422 53.677931 -0.000000 0.125238 0.295008 -0.149089 -303.479255 695.269229 -0.000000 0.380875 0.353049 -0.385589
7.675000 121.263540 45.939522 -0.000000 0.124391 0.305425 -0.149339 -266.077716 734.858475 -0.000000 0.381533 0.342109 -0.385569
7.680000 114.802332 50.414877 -0.000000 0.124334 0.316018 -0.149364 -316.970290 738.809121 -0.000000 0.381723 0.330963 -0.385548
7.685000 111.445445 38.564183 -0.000000 0.124816 0.326791 -0.149459 -276.548961 778.274680 -0.000000 0.381476 0.319981 -0.385448
7.690000 100.656865 38.016837 -0.000000 0.125971 0.337607 -0.149498 -329.320003 781.104425 -0.000000 0.380778 0.309027 -0.385270
7.695000 92.378301 21.798325 -0.000000 0.127552 0.348401 -0.149601 -270.106274 826.157378 -0.000000 0.379832 0.298139 -0.385545
7.700000 78.807965 17.197717 -0.000000 0.129750 0.359254 -0.149768 -321.591516 830.339244 -0.000000 0.377946 0.287506 -0.384995
7.705000 65.834015 2.147382 -0.000000 0.132550 0.370013 -0.149882 -264.737373 872.046185 -0.000000 0.375828 0.276821 -0.384836
7.710000 51.669099 -4.290256 -0.000000 0.135773 0.380648 -0.150121 -317.076556 876.094624 -0.000000 0.373230 0.266904 -0.384637
7.715000 36.949177 -16.135653 -0.000000 0.139443 0.391171 -0.150371 -265.262249 913.467664 -0.000000 0.370162 0.256698 -0.384449
7.720000 24.535090 -22.645200 -0.000000 0.143666 0.401499 -0.150686 -314.188827 917.044832 -0.000000 0.366629 0.246721 -0.384313
7.725000 10.132668 -30.592103 -0.000000 0.148326 0.411554 -0.151029 -242.264773 955.374645 -0.000000 0.362642 0.236837 -0.384169
7.730000 0.731228 -35.209277 -0.000000 0.153998 0.421332 -0.151189 -287.335571 956.979009 -0.000000 0.358212 0.227646 -0.384028
7.735000 -11.214082 -37.916289 -0.000000 0.159604 0.430871 -0.151324 -221.155772 984.807123 -0.000000 0.353386 0.218785 -0.383902
7.740000 -17.711304 -39.570745 -0.000000 0.164718 0.440076 -0.152101 -261.898526 981.024876 -0.000000 0.348108 0.210338 -0.383750
7.745000 -28.144494 -36.203551 -0.000000 0.171024 0.448764 -0.152491 -173.377406 1001.872460 -0.000000 0.342517 0.202339 -0.383608
7.750000 -33.121864 -33.265988 -0.000000 0.177239 0.456903 -0.153195 -211.433993 990.725770 -0.000000 0.336534 0.194783 -0.383480
7.755000 -41.681737 -22.239339 -0.000000 0.184851 0.464726 -0.153183 -114.845830 997.267240 -0.000000 0.330270 0.187797 -0.383302
7.760000 -46.733430 -12.627066 -0.000000 0.192540 0.471871 -0.154079 -148.096246 977.779787 -0.000000 0.323746 0.181319 -0.383141
7.765000 -52.637273 6.674586 -0.000000 0.200308 0.478360 -0.154464 -65.261902 965.752884 -0.000000 0.316895 0.175454 -0.383014
7.770000 -58.745251 24.061172 -0.000000 0.208419 0.484470 -0.154848 -93.048556 936.019571 -0.000000 0.309838 0.170179 -0.382863
7.775000 -60.694636 52.182351 -0.000000 0.216874 0.490040 -0.155192 -7.852343 906.701145 -0.000000 0.302542 0.165589 -0.382699
7.780000 -67.722930 75.416888 -0.000000 0.225534 0.494579 -0.155560 -35.164892 865.460636 -0.000000 0.294967 0.161631 -0.382598
7.785000 -63.476007 108.128489 -0.000000 0.234196 0.499078 -0.155989 44.423120 817.817870 -0.000000 0.287290 0.158349 -0.382495
7.790000 -70.561489 132.427137 -0.000000 0.243023 0.502357 -0.156233 22.185189 765.188296 -0.000000 0.279404 0.155731 -0.382436
7.795000 -60.162576 162.952577 -0.000000 0.251337 0.505164 -0.156217 89.542946 700.368884 -0.000000 0.271360 0.153863 -0.382334
7.800000 -68.123697 183.067741 -0.000000 0.259661 0.507071 -0.156363 69.984653 637.568059 -0.000000 0.263242 0.152739 -0.382220
7.805000 -53.211342 207.967084 -0.000000 0.268046 0.508355 -0.156559 124.198184 558.841726 -0.000000 0.255016 0.152373 -0.382125
7.810000 -64.305282 222.940594 -0.000000 0.276187 0.508836 -0.156556 103.891820 489.727711 -0.000000 0.246807 0.152832 -0.381980
7.815000 -49.018114 243.217754 -0.000000 0.284189 0.508416 -0.156210 137.878754 404.667943 -0.000000 0.238558 0.154030 -0.381839
7.820000 -63.567367 255.980953 -0.000000 0.292165 0.507229 -0.155901 118.126654 334.861324 -0.000000 0.230408 0.155951 -0.381694
7.825000 -48.121477 275.666972 -0.000000 0.299616 0.505234 -0.155305 133.412931 252.430149 -0.000000 0.222252 0.158525 -0.381528
7.830000 -67.765984 289.277579 -0.000000 0.307262 0.502478 -0.155072 112.508805 190.334545 -0.000000 0.214113 0.161719 -0.381345
7.835000 -45.831333 312.819365 -0.000000 0.314662 0.498809 -0.154706 113.935029 118.244863 -0.000000 0.206048 0.165404 -0.381239
7.840000 -70.764886 329.816262 -0.000000 0.322164 0.494476 -0.154548 93.501916 71.008783 -0.000000 0.198038 0.169521 -0.381097
7.845000 -55.201565 356.391617 -0.000000 0.329362 0.489355 -0.153902 81.046573 21.268911 -0.000000 0.190086 0.174232 -0.381050
7.850000 -85.501165 376.267360 -0.000000 0.336482 0.483672 -0.153350 65.630215 -8.545652 -0.000000 0.182217 0.179413 -0.380914
